Inverse Dynamics Generalized Forces
version=1
nRows=15
nColumns=34
inDegrees=no
endheader 
time	pelvis_tilt_moment	pelvis_list_moment	pelvis_rotation_moment	pelvis_tx_force	pelvis_ty_force	pelvis_tz_force	hip_flexion_l_moment	hip_adduction_l_moment	hip_rotation_l_moment	hip_flexion_r_moment	hip_adduction_r_moment	hip_rotation_r_moment	knee_angle_l_moment	knee_angle_r_moment	ankle_angle_l_moment	ankle_angle_r_moment	subtalar_angle_l_moment	subtalar_angle_r_moment	mtp_angle_l_moment	mtp_angle_r_moment	lumbar_extension_moment	lumbar_bending_moment	lumbar_rotation_moment	arm_flex_l_moment	arm_add_l_moment	arm_rot_l_moment	arm_flex_r_moment	arm_add_r_moment	arm_rot_r_moment	elbow_flex_l_moment	elbow_flex_r_moment	pro_sup_l_moment	pro_sup_r_moment	
          2.86000000	          0.00000000	         -0.00000000	          0.00000000	          0.00000000	          0.00000000	          0.00000000	         -4.62522802	       -122.62872048	         14.82508372	       -135.14575614	        -89.75417500	         33.97190950	          4.33229174	         72.64501488	          2.61676285	         -3.00009212	         -3.99395665	         -3.64439460	         -0.14877442	          0.25005205	        102.99514884	        -49.84035793	        -15.30404256	        -47.61628486	         59.08100787	         -9.98926656	         59.58517094	        109.48579502	        105.50339991	         -0.97229206	       -110.49800253	         -1.60611162	          3.24655326	
          2.87000000	         -0.00000000	         -0.00000000	         -0.00000000	         -0.00000000	         -0.00000000	         -0.00000000	         -2.78840213	       -111.66222269	         14.40988540	       -110.15155538	        -88.51429077	         34.57490986	          1.87383896	         65.42259814	          3.04757997	         -1.77204908	         -3.87899753	         -3.91655723	         -0.18347192	          0.14178516	        104.69973376	        -31.81896887	        -10.36852060	          1.44538042	         81.99885110	        -45.48516574	         82.46643671	         76.47795211	         60.11831767	         34.00768650	        -44.68760256	         -9.42035894	          0.02314287	
          2.88000000	         -0.00000000	         -0.00000000	          0.00000000	          0.00000000	         -0.00000000	         -0.00000000	         10.30120144	       -101.34100551	         15.97835979	        -53.97339551	        -83.56874244	         31.97842294	         -0.36037232	         43.42411953	          4.16849606	          0.59283586	         -4.69813987	         -3.81435384	         -0.22563516	         -0.02017872	         60.10002593	         -6.72952616	         30.74913988	         37.86634912	         98.52034138	        -34.42681940	         99.35124909	         82.71126434	          6.96027438	         -5.82315354	          4.45244750	         -5.94503010	         -1.94952342	
          2.89000000	          0.00000000	         -0.00000000	         -0.00000000	         -0.00000000	         -0.00000000	         -0.00000000	          5.65363634	        -90.86240297	         15.11925338	        -61.48388457	        -89.54928147	         27.28678797	          1.27513917	         40.99716649	          4.50912633	         -0.97049307	         -4.91338684	         -2.87976980	         -0.23106824	          0.07812387	         70.99387802	         13.43593585	         40.09739291	         -9.15155236	         36.38105081	         14.45296905	        111.65524714	         24.79195483	        -32.52897938	        -42.81676035	         41.15317540	          3.50552772	         -2.43241907	
          2.90000000	          0.00000000	          0.00000000	          0.00000000	         -0.00000000	          0.00000000	          0.00000000	         28.75906035	        -88.85907426	         16.31600197	        -57.64519205	        -83.52177880	         22.56912770	        -16.17876091	         36.96513202	          4.30213656	         -1.59304931	         -4.07047819	         -2.50567900	         -0.15382869	          0.12350184	         29.97629720	        -14.50934354	         19.96996222	        -44.42540641	         46.68091873	        -23.94287379	        120.73954201	         -0.11237628	        -61.97853529	          5.55577718	         68.47753600	         -2.62888183	         -3.13676437	
          2.91000000	         -0.00000000	         -0.00000000	          0.00000000	          0.00000000	          0.00000000	         -0.00000000	         40.68552563	        -83.71061602	         16.77326439	        -50.95888164	        -78.42571629	         20.38407140	        -27.75999061	         32.58617832	          3.96402415	         -1.37833825	         -2.56781095	         -2.66243370	         -0.12862870	          0.11736838	         -0.49176349	        -27.39764592	         -3.87254184	        -71.01491924	         20.26957044	         20.45935190	        127.66517965	        -30.08839933	        -83.77883680	        -33.61802950	         88.61078003	          5.79720719	         -3.97565674	
          2.92000000	          0.00000000	          0.00000000	          0.00000000	          0.00000000	         -0.00000000	          0.00000000	         60.11344330	        -66.94329700	         15.51974590	        -38.54599996	        -72.61840243	         18.27862762	        -38.28502344	         25.07044892	          4.80771551	          0.12721442	         -2.15715223	         -2.95745642	         -0.18833132	          0.01639442	        -40.84051796	         -6.14042259	        -16.70214957	        -90.30109854	         33.02565482	         51.15293086	         60.62324730	         14.68766284	        -25.36575188	        -59.68525521	         81.04099382	          9.67610558	         -3.01829991	
          2.93000000	          0.00000000	          0.00000000	          0.00000000	         -0.00000000	          0.00000000	          0.00000000	         71.32445711	        -61.56003483	         12.95802939	        -29.87438876	        -64.41168181	         14.49396560	        -51.06303250	         18.61288260	          5.53000620	          1.11940843	         -2.57140042	         -2.70620410	         -0.22061873	         -0.08417607	        -37.07490214	         17.08010429	        -30.05149348	        -52.11928570	          7.07288512	         -1.90431771	          8.26820964	         41.16165005	         18.21774555	         -5.42109788	         22.93879463	          1.22023978	         -0.77061359	
          2.94000000	         -0.00000000	         -0.00000000	         -0.00000000	         -0.00000000	         -0.00000000	         -0.00000000	         82.04023876	        -47.71182009	         10.07481641	        -29.48280399	        -61.87300643	          9.49772506	        -63.46410179	         14.57573753	          5.18370062	          2.37847233	         -2.72133407	         -2.07733554	         -0.16499387	         -0.21278206	        -30.82736131	         51.91785198	         -0.47479250	         -1.60116750	         16.99423834	        -40.60798798	        -31.27813819	         49.32976982	         50.69535366	         34.09507059	        -20.28292174	         -8.39917494	          1.51828022	
          2.95000000	          0.00000000	         -0.00000000	         -0.00000000	         -0.00000000	         -0.00000000	         -0.00000000	        105.45972845	        -36.08477431	         10.54460649	        -27.87231308	        -53.67333252	          6.94257818	        -64.63741904	         11.59849853	          5.21223467	          4.69675010	         -2.65426158	         -2.88296170	         -0.15819515	         -0.36885138	        -76.20377788	         40.59600256	         33.02286677	         19.49115463	         50.29320482	        -66.69493871	        -55.53626826	         45.43876883	         44.42692365	         62.10127972	        -52.40956798	        -13.78893471	          2.28071746	
          2.96000000	          0.00000000	         -0.00000000	         -0.00000000	          0.00000000	         -0.00000000	         -0.00000000	        121.15392452	        -26.67998057	          8.72689321	         -7.65278222	        -46.92963156	          7.16763058	        -70.07084153	         10.54381242	          5.06918438	          3.77143076	         -2.22369027	         -2.65940283	         -0.15237509	         -0.25680017	       -121.12919352	         72.32736478	         41.23700665	        -22.97140699	         -0.27160090	         -7.59348822	        -46.07791970	         -3.26783488	         -4.36069532	          7.01407136	        -66.79911070	         -3.11894433	          1.40032506	
          2.97000000	          0.00000000	          0.00000000	          0.00000000	          0.00000000	          0.00000000	         -0.00000000	        115.52851823	        -25.56378675	          6.79708327	         27.71846251	        -37.40641084	          6.45957688	        -67.48542103	          6.38660743	          4.85361034	          3.40381075	         -1.61931312	         -2.43861375	         -0.17740722	         -0.18710468	       -159.71826322	         67.69177481	         23.04002350	        -55.12584512	        -35.81313775	         32.88583847	         -5.83104690	        -39.89080503	        -40.48453469	        -32.60095533	        -12.40955695	          6.57454524	         -0.72631290	
          2.98000000	         -0.00000000	          0.00000000	         -0.00000000	          0.00000000	          0.00000000	          0.00000000	        106.73411424	        -24.85398314	          4.99055003	         41.55442579	        -31.57518391	          6.50405883	        -60.25221438	          9.04253280	          4.48665405	          2.17382250	         -0.83447911	         -1.87132771	         -0.21274724	         -0.04164864	       -165.77857509	         50.85584817	          5.71817845	        -78.77931479	          0.85076782	         59.17990812	         33.05169974	        -16.25969981	        -67.22952935	        -60.80959672	         28.08050961	         11.63343774	         -2.45782401	
          2.99000000	         -0.00000000	          0.00000000	         -0.00000000	          0.00000000	          0.00000000	          0.00000000	         92.09092220	        -21.97345133	          3.31320475	         26.51519128	        -41.15359343	          4.34384487	        -64.18484159	          5.71728992	          3.24904811	          1.68377297	         -0.23446219	         -1.14152185	         -0.15510422	         -0.04554342	       -122.75999964	         51.22771423	          7.17155897	        -58.24125668	         38.12741466	          3.10725639	         53.31673318	        -18.72425274	        -12.30495900	         -6.09445503	         58.14632260	          1.57308096	         -1.54310689	
          3.00000000	         -0.00000000	          0.00000000	          0.00000000	         -0.00000000	          0.00000000	          0.00000000	         73.44998156	        -16.04984281	          2.32650419	         14.98436471	        -38.10079143	          3.11446949	        -54.08979118	          3.79915945	          1.90225789	          0.79790695	          0.47031656	         -0.17001394	         -0.09641281	         -0.01175128	       -101.15337042	         42.09101659	         12.16682738	        -81.09989498	         66.38512479	        -37.13718818	         23.03655351	         -9.64886922	         28.05752316	         33.39025456	         12.42374800	        -10.49620930	         -0.03054289	
